<svg width="24" height="24" viewBox="0 0 24 24" fill="none" xmlns="http://www.w3.org/2000/svg">
<path d="M10.9523 11.1268C10.0293 11.1268 9.12703 10.8531 8.3596 10.3403C7.59217 9.82754 6.99403 9.0987 6.64082 8.24598C6.28762 7.39326 6.1952 6.45495 6.37526 5.5497C6.55533 4.64446 6.99979 3.81294 7.65243 3.16029C8.30508 2.50765 9.1366 2.06319 10.0418 1.88313C10.9471 1.70306 11.8854 1.79548 12.7381 2.14869C13.5908 2.5019 14.3197 3.10004 14.8325 3.86746C15.3452 4.63489 15.6189 5.53715 15.6189 6.46013C15.6189 7.6978 15.1273 8.88479 14.2521 9.75996C13.3769 10.6351 12.1899 11.1268 10.9523 11.1268ZM10.9523 3.18013C10.293 3.18013 9.64853 3.37562 9.10036 3.74189C8.5522 4.10817 8.12496 4.62876 7.87266 5.23785C7.62037 5.84693 7.55436 6.51716 7.68298 7.16376C7.8116 7.81036 8.12906 8.40431 8.59524 8.87048C9.06141 9.33666 9.65536 9.65413 10.302 9.78274C10.9486 9.91136 11.6188 9.84535 12.2279 9.59306C12.837 9.34076 13.3576 8.91352 13.7238 8.36536C14.0901 7.8172 14.2856 7.17273 14.2856 6.51346C14.2856 6.07572 14.1994 5.64227 14.0319 5.23785C13.8643 4.83343 13.6188 4.46597 13.3093 4.15644C12.9998 3.84691 12.6323 3.60138 12.2279 3.43386C11.8235 3.26635 11.39 3.18013 10.9523 3.18013ZM14.6656 11.9335C11.0579 11.1212 7.28348 11.5122 3.91893 13.0468C3.45619 13.2678 3.06577 13.6158 2.79313 14.0501C2.52049 14.4845 2.37684 14.9873 2.37893 15.5001V19.4668C2.37893 19.5543 2.39617 19.641 2.42968 19.7219C2.46318 19.8028 2.51229 19.8763 2.57419 19.9382C2.6361 20.0001 2.70959 20.0492 2.79047 20.0827C2.87136 20.1162 2.95805 20.1335 3.0456 20.1335C3.13314 20.1335 3.21983 20.1162 3.30072 20.0827C3.3816 20.0492 3.45509 20.0001 3.517 19.9382C3.57891 19.8763 3.62801 19.8028 3.66151 19.7219C3.69502 19.641 3.71226 19.5543 3.71226 19.4668V15.5001C3.70646 15.2406 3.77654 14.985 3.91391 14.7647C4.05129 14.5445 4.24997 14.3691 4.4856 14.2601C6.51237 13.3241 8.71978 12.8439 10.9523 12.8535C12.2031 12.852 13.4497 12.9997 14.6656 13.2935V11.9335ZM14.7589 18.2735H18.8523V19.2068H14.7589V18.2735Z" fill="#716186"/>
<path d="M22.1146 14.3132H18.668V15.6465H21.448V21.2265H12.0013V15.6465H16.2013V15.9265C16.2013 16.1033 16.2715 16.2729 16.3966 16.3979C16.5216 16.5229 16.6912 16.5932 16.868 16.5932C17.0448 16.5932 17.2143 16.5229 17.3394 16.3979C17.4644 16.2729 17.5346 16.1033 17.5346 15.9265V13.3332C17.5346 13.1564 17.4644 12.9868 17.3394 12.8618C17.2143 12.7367 17.0448 12.6665 16.868 12.6665C16.6912 12.6665 16.5216 12.7367 16.3966 12.8618C16.2715 12.9868 16.2013 13.1564 16.2013 13.3332V14.3132H11.3346C11.1578 14.3132 10.9883 14.3834 10.8632 14.5084C10.7382 14.6335 10.668 14.803 10.668 14.9798V21.8932C10.668 22.07 10.7382 22.2396 10.8632 22.3646C10.9883 22.4896 11.1578 22.5598 11.3346 22.5598H22.1146C22.2914 22.5598 22.461 22.4896 22.586 22.3646C22.7111 22.2396 22.7813 22.07 22.7813 21.8932V14.9798C22.7813 14.803 22.7111 14.6335 22.586 14.5084C22.461 14.3834 22.2914 14.3132 22.1146 14.3132Z" fill="#716186"/>
</svg>
